PERFORMER "Evil Nine"
TITLE "Essential Mix (2005-03-20) [TMB]"
FILE "Essential Mix 603 2005.03.20 - Evil 9.mp3" MP3
  TRACK 01 AUDIO
    PERFORMER "Essential Mix"
    TITLE "Intro"
    INDEX 01 00:00:00
  TRACK 02 AUDIO
    PERFORMER "Micronauts"
    TITLE "Unknown"
    INDEX 01 01:08:00
  TRACK 03 AUDIO
    PERFORMER "Evil Nine"
    TITLE "Devil Stuff"
    INDEX 01 02:29:00
  TRACK 04 AUDIO
    PERFORMER "Trevor Loveys"
    TITLE "Back To Front"
    INDEX 01 06:58:00
  TRACK 05 AUDIO
    PERFORMER "Freestyleman vs. DJ T"
    TITLE "Acid Bath"
    INDEX 01 11:42:00
  TRACK 06 AUDIO
    PERFORMER "Freeform Five"
    TITLE "Electromagnetic (Evil Nine's Broadway Mix)"
    INDEX 01 17:58:00
  TRACK 07 AUDIO
    PERFORMER "Campag Velocet"
    TITLE "We Are The Trumping Men (Riton Remix)"
    INDEX 01 24:02:00
  TRACK 08 AUDIO
    PERFORMER "Freeland"
    TITLE "Heel And Toe (Evil Nine Remix)"
    INDEX 01 28:09:00
  TRACK 09 AUDIO
    PERFORMER "Phonique"
    TITLE "Lady In A Red Dress (Tiefschwarz Mix)"
    INDEX 01 34:45:00
  TRACK 10 AUDIO
    PERFORMER "Blim"
    TITLE "Sound In My Head"
    INDEX 01 39:45:00
  TRACK 11 AUDIO
    PERFORMER "Evil Nine"
    TITLE "Burn It To The Ground"
    INDEX 01 45:09:00
  TRACK 12 AUDIO
    PERFORMER "Mellow"
    TITLE "Drifting Out Of Sight (FC Kahuna Remix)"
    INDEX 01 51:42:00
  TRACK 13 AUDIO
    PERFORMER "Blur"
    TITLE "Song 2 (Tom Middleton Edit)"
    INDEX 01 55:49:00
  TRACK 14 AUDIO
    PERFORMER "Dylan Rhymes / Evil Nine"
    TITLE "The Way (Evil Nine Remix) / Pearlshot (Accapella)"
    INDEX 01 59:14:00
  TRACK 15 AUDIO
    PERFORMER "Bassbin Twins"
    TITLE "808080"
    INDEX 01 65:12:00
  TRACK 16 AUDIO
    PERFORMER "Santos"
    TITLE "Sabot (Evil Nine Remix)"
    INDEX 01 70:47:00
  TRACK 17 AUDIO
    PERFORMER "Pixeltan"
    TITLE "Say What/Get On Up (DFA Remix)"
    INDEX 01 78:03:00
  TRACK 18 AUDIO
    PERFORMER "Roman Flugel"
    TITLE "Gehst Nocht (Dominic Eulberg Remix)"
    INDEX 01 84:21:00
  TRACK 19 AUDIO
    PERFORMER "Future Funk Squad"
    TITLE "Towards The Sun (Evil Nine Remix)"
    INDEX 01 89:25:00
  TRACK 20 AUDIO
    PERFORMER "Smashing Pumpkins"
    TITLE "1969 (False Prophet Mix)"
    INDEX 01 95:04:00
  TRACK 21 AUDIO
    PERFORMER "Alex Dolby"
    TITLE "Hazy Way (Evil Nine Remix)"
    INDEX 01 101:58:00
  TRACK 22 AUDIO
    PERFORMER "Evil Nine Feat. Aesop Rock"
    TITLE "Crooked"
    INDEX 01 107:54:00
  TRACK 23 AUDIO
    PERFORMER "The Beatles"
    TITLE "Tommorow Never Knows"
    INDEX 01 112:38:00
  TRACK 24 AUDIO
    PERFORMER "Aphex Twin"
    TITLE "Stepping Filter 101"
    INDEX 01 115:36:00